<mxfile host="app.diagrams.net" modified="2024-02-29T15:18:29.926Z" agent="Mozilla/5.0 (Windows NT 10.0; Win64; x64) AppleWebKit/537.36 (KHTML, like Gecko) Chrome/121.0.0.0 Safari/537.36" etag="OlAfyWdcP9NxlExmSppb" version="23.1.7" type="device">
  <diagram id="C5RBs43oDa-KdzZeNtuy" name="Page-1">
    <mxGraphModel dx="1589" dy="789" grid="1" gridSize="10" guides="1" tooltips="1" connect="1" arrows="1" fold="1" page="1" pageScale="1" pageWidth="827" pageHeight="1169" math="0" shadow="0">
      <root>
        <mxCell id="WIyWlLk6GJQsqaUBKTNV-0" />
        <mxCell id="WIyWlLk6GJQsqaUBKTNV-1" parent="WIyWlLk6GJQsqaUBKTNV-0" />
        <mxCell id="-T_SQAtuIGH4cXTe9QDL-0" value="RandomPass" style="swimlane;fontStyle=0;childLayout=stackLayout;horizontal=1;startSize=30;horizontalStack=0;resizeParent=1;resizeParentMax=0;resizeLast=0;collapsible=1;marginBottom=0;whiteSpace=wrap;html=1;" parent="WIyWlLk6GJQsqaUBKTNV-1" vertex="1">
          <mxGeometry x="350" y="260" width="230" height="60" as="geometry" />
        </mxCell>
        <mxCell id="-T_SQAtuIGH4cXTe9QDL-1" value="+static&amp;nbsp;getRandomPassword(length: int)" style="text;strokeColor=none;fillColor=none;align=left;verticalAlign=middle;spacingLeft=4;spacingRight=4;overflow=hidden;points=[[0,0.5],[1,0.5]];portConstraint=eastwest;rotatable=0;whiteSpace=wrap;html=1;" parent="-T_SQAtuIGH4cXTe9QDL-0" vertex="1">
          <mxGeometry y="30" width="230" height="30" as="geometry" />
        </mxCell>
        <mxCell id="-T_SQAtuIGH4cXTe9QDL-4" value="&amp;lt;&amp;lt;enum&amp;gt;&amp;gt;&lt;br&gt;Constantes" style="swimlane;fontStyle=0;childLayout=stackLayout;horizontal=1;startSize=30;horizontalStack=0;resizeParent=1;resizeParentMax=0;resizeLast=0;collapsible=1;marginBottom=0;whiteSpace=wrap;html=1;" parent="WIyWlLk6GJQsqaUBKTNV-1" vertex="1">
          <mxGeometry x="170" y="410" width="370" height="330" as="geometry" />
        </mxCell>
        <mxCell id="-T_SQAtuIGH4cXTe9QDL-5" value="+NUMEROS(&quot;1234567890&quot;)" style="text;strokeColor=none;fillColor=none;align=left;verticalAlign=middle;spacingLeft=4;spacingRight=4;overflow=hidden;points=[[0,0.5],[1,0.5]];portConstraint=eastwest;rotatable=0;whiteSpace=wrap;html=1;" parent="-T_SQAtuIGH4cXTe9QDL-4" vertex="1">
          <mxGeometry y="30" width="370" height="30" as="geometry" />
        </mxCell>
        <mxCell id="-T_SQAtuIGH4cXTe9QDL-6" value="+LETRAS_MINUSCULAS(&quot;qwertyuioplkjhgfdsazxcvbnm&quot;)" style="text;strokeColor=none;fillColor=none;align=left;verticalAlign=middle;spacingLeft=4;spacingRight=4;overflow=hidden;points=[[0,0.5],[1,0.5]];portConstraint=eastwest;rotatable=0;whiteSpace=wrap;html=1;" parent="-T_SQAtuIGH4cXTe9QDL-4" vertex="1">
          <mxGeometry y="60" width="370" height="30" as="geometry" />
        </mxCell>
        <mxCell id="-T_SQAtuIGH4cXTe9QDL-7" value="+LETRAS_MAYUSCULAS (LETRAS_MINUSCULAS.contenido.toUpperCase())" style="text;strokeColor=none;fillColor=none;align=left;verticalAlign=middle;spacingLeft=4;spacingRight=4;overflow=hidden;points=[[0,0.5],[1,0.5]];portConstraint=eastwest;rotatable=0;whiteSpace=wrap;html=1;" parent="-T_SQAtuIGH4cXTe9QDL-4" vertex="1">
          <mxGeometry y="90" width="370" height="60" as="geometry" />
        </mxCell>
        <mxCell id="-T_SQAtuIGH4cXTe9QDL-8" value="+CARACTERES (&quot;!@#$%^&amp;amp;*()_+{}[]&quot;&lt;span style=&quot;background-color: initial;&quot;&gt;)&lt;/span&gt;" style="text;strokeColor=none;fillColor=none;align=left;verticalAlign=middle;spacingLeft=4;spacingRight=4;overflow=hidden;points=[[0,0.5],[1,0.5]];portConstraint=eastwest;rotatable=0;whiteSpace=wrap;html=1;" parent="-T_SQAtuIGH4cXTe9QDL-4" vertex="1">
          <mxGeometry y="150" width="370" height="60" as="geometry" />
        </mxCell>
        <mxCell id="-T_SQAtuIGH4cXTe9QDL-9" value="-contenido: String" style="text;strokeColor=none;fillColor=none;align=left;verticalAlign=middle;spacingLeft=4;spacingRight=4;overflow=hidden;points=[[0,0.5],[1,0.5]];portConstraint=eastwest;rotatable=0;whiteSpace=wrap;html=1;" parent="-T_SQAtuIGH4cXTe9QDL-4" vertex="1">
          <mxGeometry y="210" width="370" height="60" as="geometry" />
        </mxCell>
        <mxCell id="-T_SQAtuIGH4cXTe9QDL-10" value="-Constantes(contenido: String)" style="text;strokeColor=none;fillColor=none;align=left;verticalAlign=middle;spacingLeft=4;spacingRight=4;overflow=hidden;points=[[0,0.5],[1,0.5]];portConstraint=eastwest;rotatable=0;whiteSpace=wrap;html=1;" parent="-T_SQAtuIGH4cXTe9QDL-4" vertex="1">
          <mxGeometry y="270" width="370" height="60" as="geometry" />
        </mxCell>
        <mxCell id="-T_SQAtuIGH4cXTe9QDL-22" value="" style="endArrow=none;html=1;rounded=0;exitX=0;exitY=-0.05;exitDx=0;exitDy=0;exitPerimeter=0;entryX=1;entryY=0;entryDx=0;entryDy=0;entryPerimeter=0;" parent="-T_SQAtuIGH4cXTe9QDL-4" source="-T_SQAtuIGH4cXTe9QDL-9" target="-T_SQAtuIGH4cXTe9QDL-9" edge="1">
          <mxGeometry width="50" height="50" relative="1" as="geometry">
            <mxPoint x="220" y="140" as="sourcePoint" />
            <mxPoint x="360" y="210" as="targetPoint" />
          </mxGeometry>
        </mxCell>
        <mxCell id="-T_SQAtuIGH4cXTe9QDL-23" value="" style="endArrow=none;html=1;rounded=0;exitX=0;exitY=-0.017;exitDx=0;exitDy=0;exitPerimeter=0;entryX=1.005;entryY=-0.017;entryDx=0;entryDy=0;entryPerimeter=0;" parent="-T_SQAtuIGH4cXTe9QDL-4" source="-T_SQAtuIGH4cXTe9QDL-10" target="-T_SQAtuIGH4cXTe9QDL-10" edge="1">
          <mxGeometry width="50" height="50" relative="1" as="geometry">
            <mxPoint x="220" y="140" as="sourcePoint" />
            <mxPoint x="270" y="90" as="targetPoint" />
          </mxGeometry>
        </mxCell>
        <mxCell id="-T_SQAtuIGH4cXTe9QDL-11" value="Validaciones" style="swimlane;fontStyle=0;childLayout=stackLayout;horizontal=1;startSize=30;horizontalStack=0;resizeParent=1;resizeParentMax=0;resizeLast=0;collapsible=1;marginBottom=0;whiteSpace=wrap;html=1;" parent="WIyWlLk6GJQsqaUBKTNV-1" vertex="1">
          <mxGeometry x="30" y="220" width="270" height="180" as="geometry" />
        </mxCell>
        <mxCell id="-T_SQAtuIGH4cXTe9QDL-12" value="+static getLength(scanner: Scanner): boolean" style="text;strokeColor=none;fillColor=none;align=left;verticalAlign=middle;spacingLeft=4;spacingRight=4;overflow=hidden;points=[[0,0.5],[1,0.5]];portConstraint=eastwest;rotatable=0;whiteSpace=wrap;html=1;" parent="-T_SQAtuIGH4cXTe9QDL-11" vertex="1">
          <mxGeometry y="30" width="270" height="30" as="geometry" />
        </mxCell>
        <mxCell id="M4XXbyy9uR1no1x-IzqK-15" value="+static&amp;nbsp;validarRango(cantidad:int): boolean" style="text;strokeColor=none;fillColor=none;align=left;verticalAlign=middle;spacingLeft=4;spacingRight=4;overflow=hidden;points=[[0,0.5],[1,0.5]];portConstraint=eastwest;rotatable=0;whiteSpace=wrap;html=1;" vertex="1" parent="-T_SQAtuIGH4cXTe9QDL-11">
          <mxGeometry y="60" width="270" height="30" as="geometry" />
        </mxCell>
        <mxCell id="M4XXbyy9uR1no1x-IzqK-16" value="+static&amp;nbsp;validarString(string:String, length:int): boolean" style="text;strokeColor=none;fillColor=none;align=left;verticalAlign=middle;spacingLeft=4;spacingRight=4;overflow=hidden;points=[[0,0.5],[1,0.5]];portConstraint=eastwest;rotatable=0;whiteSpace=wrap;html=1;" vertex="1" parent="-T_SQAtuIGH4cXTe9QDL-11">
          <mxGeometry y="90" width="270" height="30" as="geometry" />
        </mxCell>
        <mxCell id="M4XXbyy9uR1no1x-IzqK-17" value="-static&amp;nbsp;normalizarCadena(cadena:String):String" style="text;strokeColor=none;fillColor=none;align=left;verticalAlign=middle;spacingLeft=4;spacingRight=4;overflow=hidden;points=[[0,0.5],[1,0.5]];portConstraint=eastwest;rotatable=0;whiteSpace=wrap;html=1;" vertex="1" parent="-T_SQAtuIGH4cXTe9QDL-11">
          <mxGeometry y="120" width="270" height="30" as="geometry" />
        </mxCell>
        <mxCell id="-T_SQAtuIGH4cXTe9QDL-14" value="+static&amp;nbsp;validarRespuesta(respuesta:String):String" style="text;strokeColor=none;fillColor=none;align=left;verticalAlign=middle;spacingLeft=4;spacingRight=4;overflow=hidden;points=[[0,0.5],[1,0.5]];portConstraint=eastwest;rotatable=0;whiteSpace=wrap;html=1;" parent="-T_SQAtuIGH4cXTe9QDL-11" vertex="1">
          <mxGeometry y="150" width="270" height="30" as="geometry" />
        </mxCell>
        <mxCell id="-T_SQAtuIGH4cXTe9QDL-15" value="Start" style="swimlane;fontStyle=0;childLayout=stackLayout;horizontal=1;startSize=30;horizontalStack=0;resizeParent=1;resizeParentMax=0;resizeLast=0;collapsible=1;marginBottom=0;whiteSpace=wrap;html=1;" parent="WIyWlLk6GJQsqaUBKTNV-1" vertex="1">
          <mxGeometry x="110" y="30" width="140" height="60" as="geometry" />
        </mxCell>
        <mxCell id="-T_SQAtuIGH4cXTe9QDL-16" value="+static&amp;nbsp;start()" style="text;strokeColor=none;fillColor=none;align=left;verticalAlign=middle;spacingLeft=4;spacingRight=4;overflow=hidden;points=[[0,0.5],[1,0.5]];portConstraint=eastwest;rotatable=0;whiteSpace=wrap;html=1;" parent="-T_SQAtuIGH4cXTe9QDL-15" vertex="1">
          <mxGeometry y="30" width="140" height="30" as="geometry" />
        </mxCell>
        <mxCell id="-T_SQAtuIGH4cXTe9QDL-21" value="" style="endArrow=diamondThin;endFill=1;endSize=24;html=1;rounded=0;entryX=0.5;entryY=1.033;entryDx=0;entryDy=0;entryPerimeter=0;exitX=0.5;exitY=0;exitDx=0;exitDy=0;" parent="WIyWlLk6GJQsqaUBKTNV-1" source="-T_SQAtuIGH4cXTe9QDL-4" target="-T_SQAtuIGH4cXTe9QDL-1" edge="1">
          <mxGeometry width="160" relative="1" as="geometry">
            <mxPoint x="330" y="430" as="sourcePoint" />
            <mxPoint x="490" y="430" as="targetPoint" />
            <Array as="points">
              <mxPoint x="355" y="360" />
              <mxPoint x="420" y="360" />
            </Array>
          </mxGeometry>
        </mxCell>
        <mxCell id="M4XXbyy9uR1no1x-IzqK-0" value="Main" style="swimlane;fontStyle=0;childLayout=stackLayout;horizontal=1;startSize=30;horizontalStack=0;resizeParent=1;resizeParentMax=0;resizeLast=0;collapsible=1;marginBottom=0;whiteSpace=wrap;html=1;" vertex="1" parent="WIyWlLk6GJQsqaUBKTNV-1">
          <mxGeometry x="430" y="30" width="140" height="60" as="geometry" />
        </mxCell>
        <mxCell id="M4XXbyy9uR1no1x-IzqK-2" value="+main(String[] args)" style="text;strokeColor=none;fillColor=none;align=left;verticalAlign=middle;spacingLeft=4;spacingRight=4;overflow=hidden;points=[[0,0.5],[1,0.5]];portConstraint=eastwest;rotatable=0;whiteSpace=wrap;html=1;" vertex="1" parent="M4XXbyy9uR1no1x-IzqK-0">
          <mxGeometry y="30" width="140" height="30" as="geometry" />
        </mxCell>
        <mxCell id="M4XXbyy9uR1no1x-IzqK-9" value="" style="endArrow=diamondThin;endFill=0;endSize=24;html=1;rounded=0;entryX=0;entryY=0.5;entryDx=0;entryDy=0;" edge="1" parent="WIyWlLk6GJQsqaUBKTNV-1" target="M4XXbyy9uR1no1x-IzqK-0">
          <mxGeometry width="160" relative="1" as="geometry">
            <mxPoint x="250" y="59.5" as="sourcePoint" />
            <mxPoint x="410" y="59.5" as="targetPoint" />
          </mxGeometry>
        </mxCell>
        <mxCell id="M4XXbyy9uR1no1x-IzqK-10" value="" style="endArrow=diamondThin;endFill=1;endSize=24;html=1;rounded=0;entryX=0.65;entryY=1.133;entryDx=0;entryDy=0;entryPerimeter=0;" edge="1" parent="WIyWlLk6GJQsqaUBKTNV-1" source="-T_SQAtuIGH4cXTe9QDL-0" target="-T_SQAtuIGH4cXTe9QDL-16">
          <mxGeometry width="160" relative="1" as="geometry">
            <mxPoint x="330" y="230" as="sourcePoint" />
            <mxPoint x="490" y="230" as="targetPoint" />
            <Array as="points">
              <mxPoint x="445" y="170" />
              <mxPoint x="201" y="170" />
            </Array>
          </mxGeometry>
        </mxCell>
        <mxCell id="M4XXbyy9uR1no1x-IzqK-18" value="Use" style="endArrow=open;endSize=12;dashed=1;html=1;rounded=0;exitX=0.314;exitY=1.133;exitDx=0;exitDy=0;exitPerimeter=0;entryX=0.456;entryY=0.017;entryDx=0;entryDy=0;entryPerimeter=0;" edge="1" parent="WIyWlLk6GJQsqaUBKTNV-1">
          <mxGeometry width="160" relative="1" as="geometry">
            <mxPoint x="153.96000000000004" y="90.00000000000001" as="sourcePoint" />
            <mxPoint x="153.1199999999999" y="219.06999999999994" as="targetPoint" />
          </mxGeometry>
        </mxCell>
        <mxCell id="M4XXbyy9uR1no1x-IzqK-19" value="Use" style="endArrow=open;endSize=12;dashed=1;html=1;rounded=0;exitX=0;exitY=0.5;exitDx=0;exitDy=0;entryX=0.578;entryY=-0.017;entryDx=0;entryDy=0;entryPerimeter=0;" edge="1" parent="WIyWlLk6GJQsqaUBKTNV-1" source="-T_SQAtuIGH4cXTe9QDL-0" target="-T_SQAtuIGH4cXTe9QDL-11">
          <mxGeometry width="160" relative="1" as="geometry">
            <mxPoint x="-40" y="230" as="sourcePoint" />
            <mxPoint x="120" y="230" as="targetPoint" />
            <Array as="points">
              <mxPoint x="320" y="290" />
              <mxPoint x="320" y="180" />
              <mxPoint x="186" y="180" />
            </Array>
          </mxGeometry>
        </mxCell>
      </root>
    </mxGraphModel>
  </diagram>
</mxfile>
